<svg xmlns="http://www.w3.org/2000/svg" xmlns:xlink="http://www.w3.org/1999/xlink" id="repeat" width="128" height="128" x="0" y="0" enable-background="new 0 0 128 128" version="1.1" viewBox="0 0 128 128" xml:space="preserve"><g><path d="M35.668,49.525c0-4.409,3.587-7.998,7.997-7.998h45.217l-6.627,6.654l2.834,2.822l11.412-11.46L85.09,28.082l-2.834,2.822 l6.594,6.623H43.665c-6.615,0-11.997,5.383-11.997,11.998v25.487h4L35.668,49.525L35.668,49.525z"/><path d="M92.43,78.475c0,4.408-3.588,7.998-7.996,7.998H39.117l6.626-6.654l-2.834-2.822L31.498,88.455l11.411,11.463l2.835-2.82 l-6.594-6.625h45.284c6.615,0,11.996-5.383,11.996-11.996V52.991h-4V78.475z"/></g></svg>