<svg xmlns="http://www.w3.org/2000/svg" xmlns:xlink="http://www.w3.org/1999/xlink" id="Layer_1" width="172" height="172" x="0" y="0" enable-background="new 0 0 172 172" version="1.1" viewBox="0 0 172 172" xml:space="preserve"><g><g><circle cx="85" cy="85" r="70" fill="#3695dd"/><rect width="6.775" height="35.889" x="82.607" y="41.205" fill="#FFF"/><path fill="#FFF" d="M85.995,130.537c-24.247,0-43.973-19.745-43.973-44.014c0-17.017,9.964-32.673,25.385-39.886l2.87,6.137 c-13.048,6.103-21.48,19.351-21.48,33.749c0,20.534,16.688,37.238,37.198,37.238c20.511,0,37.199-16.704,37.199-37.238 c0-14.399-8.432-27.648-21.48-33.749l2.87-6.137c15.421,7.211,25.385,22.868,25.385,39.886 C129.968,110.792,110.241,130.537,85.995,130.537z"/></g></g></svg>