<svg xmlns="http://www.w3.org/2000/svg" xmlns:xlink="http://www.w3.org/1999/xlink" id="Capa_1" width="408" height="408" x="0" y="0" fill="#46a5ed" enable-background="new 0 0 408 408" version="1.1" viewBox="0 0 408 408" xml:space="preserve"><g><g id="more-vert"><path d="M204,102c28.05,0,51-22.95,51-51S232.05,0,204,0s-51,22.95-51,51S175.95,102,204,102z M204,153c-28.05,0-51,22.95-51,51 s22.95,51,51,51s51-22.95,51-51S232.05,153,204,153z M204,306c-28.05,0-51,22.95-51,51s22.95,51,51,51s51-22.95,51-51 S232.05,306,204,306z"/></g></g></svg>